<svg width="67" height="68" viewBox="0 0 67 68" fill="none" xmlns="http://www.w3.org/2000/svg">
<path d="M48.7235 57.8552L49.7323 57.5625L48.6259 56.0335L48.7235 57.8552ZM32.1611 57.5949L31.966 58.9616C32.4681 58.9126 33.0863 59.3453 33.3327 58.3758C33.3142 57.6203 32.7391 57.5787 32.1611 57.5949V57.5949ZM40.1987 57.5625C40.115 57.1903 39.8043 56.9161 39.0271 57.1723L39.2874 58.5709C39.9259 58.4294 40.2541 58.0517 40.1987 57.5625ZM22.0417 56.4177L21.731 57.6605C22.2303 57.6813 22.8152 58.0863 23.1467 57.3498C23.1689 56.8884 23.1878 56.4288 22.0417 56.4177ZM39.5153 59.6126L39.7432 61.0445C40.2763 61.0579 40.7627 60.7375 40.6217 60.0684C40.4858 59.4249 39.9453 59.5266 39.5153 59.6126V59.6126Z" fill="#005FAF"/>
<path d="M60.6762 6.53972C43.4457 -2.23802 22.8679 -1.9939 6.45072 6.15689C-2.01493 21.0599 -2.28449 41.9114 6.45072 60.3796C24.5374 69.5323 44.5415 68.9294 60.8033 60.7624C68.446 45.0827 69.7082 26.2151 60.6762 6.53972V6.53972ZM31.5758 51.0401L30.5545 51.0517C30.3016 48.2295 29.627 45.8576 28.1798 44.0424C21.5437 35.7206 7.97832 41.9859 11.464 27.843C13.2764 20.6128 33.9495 16.3485 31.5758 51.0401V51.0401ZM11.4885 37.0715C12.9375 40.0209 22.0158 40.504 25.1672 42.7617C30.1661 46.3426 29.4485 51.053 29.4485 51.053H28.2695C25.9485 43.9388 19.4345 49.5717 14.2168 47.6557C10.9411 46.4906 8.56274 41.4403 11.4885 37.0715V37.0715ZM28.0286 60.2635L28.5169 56.3914L29.3954 56.4565L29.0047 60.719C28.6107 62.5966 25.8112 62.3455 25.458 60.5562L25.9134 56.131L26.9546 56.2943L26.4992 60.0032C26.557 61.2308 27.7882 61.1573 28.0286 60.2635ZM23.3538 61.3209L22.3524 61.0791C22.4698 60.2515 23.4514 58.5676 21.5113 58.5676L20.9713 60.7684L19.8663 60.5613L21.0402 55.278C23.9096 55.5906 24.1606 56.389 24.2175 57.2462C24.1042 57.9111 23.9271 58.3753 23.3543 58.489C24.0247 59.0975 23.3621 60.3727 23.3538 61.3209V61.3209ZM16.9932 55.4033C16.7172 55.7695 16.1647 57.0488 16.0847 58.0683C15.9997 59.1488 17.0376 58.9213 17.2961 58.7951C17.5046 58.6939 17.6595 57.826 17.6595 57.826L16.9327 57.5838L17.175 56.8574L18.8108 57.4025L18.0234 60.1285L17.3571 59.9464L17.4177 59.5224C16.6021 59.8941 15.1092 59.6153 14.9339 58.6744C14.7587 57.9185 15.2895 55.6266 16.1453 54.5558C16.9771 53.5146 19.0036 54.5322 19.053 55.1615C19.102 55.7884 18.8547 56.494 18.8547 56.494L18.0918 56.3502C18.0918 56.3502 18.1385 56.1237 18.2051 55.7667C18.2753 55.3885 17.2892 55.0098 16.9932 55.4033V55.4033ZM31.8685 59.84L31.6734 62.1832L30.8601 62.1509L31.1528 56.5865C33.1839 56.6285 34.3481 56.9096 34.3092 58.3439C34.1881 60.3033 32.6013 59.8627 31.8685 59.84ZM33.8931 51.0526H32.5324C32.4117 46.234 33.3383 37.4202 30.8065 30.9338C28.8882 26.0167 24.0335 23.8048 22.9576 19.8328C21.2543 13.5457 24.1532 6.74315 33.8931 6.21931C42.337 7.08622 44.9313 13.6049 43.4911 19.6742C41.0147 25.7425 38.5379 24.8706 35.4545 30.9153C32.936 37.3952 33.895 45.8844 33.8931 51.0526V51.0526ZM48.9838 59.9704L48.0401 60.2959L47.747 54.6991L48.8534 54.4065L51.5868 59.0268L50.8383 59.515L49.927 58.2139L48.8858 58.6042L48.9838 59.9704V59.9704ZM37.9747 51.0526H36.8864C37.7833 38.6773 53.3345 41.3659 54.7558 37.0715C57.2136 41.3289 56.3301 44.9186 53.7636 46.7587C47.3859 51.3332 41.2704 43.3734 37.9747 51.0526ZM43.7454 57.3026L44.2336 59.8733C44.5374 60.4656 44.7436 60.356 45.2096 60.2964C45.7501 59.9052 45.6373 59.5242 45.5351 59.0272L46.4788 58.8973C46.7247 60.7596 45.8393 60.9497 45.1773 61.0773C43.7574 61.179 43.479 60.9025 43.0948 59.06C42.871 57.483 42.4845 55.8176 43.8105 55.5133C45.9873 55.1809 45.8588 56.1606 46.0557 56.8472L45.1121 57.0104C44.9613 56.4205 44.7445 56.1865 44.266 56.23C43.83 56.4302 43.651 56.7543 43.7454 57.3026V57.3026ZM41.7605 59.9704C41.8058 60.7809 41.5307 61.3191 41.0119 61.4999L38.7991 61.9553L37.9207 56.5865C38.3747 56.5125 40.6009 55.6969 41.1419 57.1727C41.4086 58.0738 41.1321 58.397 40.8164 58.7993C41.4151 58.9916 41.6171 59.4577 41.7605 59.9704ZM36.0782 33.0278C41.0078 19.148 52.2878 21.6008 54.7895 27.8435C58.2169 40.37 47.1806 36.9347 40.1113 42.0714C37.4393 44.3952 36.0333 47.0611 36.0125 51.1025H34.8012C34.7286 42.9624 34.5968 37.1982 36.0782 33.0278Z" fill="#005FAF"/>
</svg>
