<svg width="67" height="67" viewBox="0 0 67 67" fill="none" xmlns="http://www.w3.org/2000/svg">
<path d="M56.7064 1.97033e-06H10.2197C4.575 1.97033e-06 0 4.68952 0 10.4745V10.5846V56.5283C0 62.2568 4.49033 66.9153 10.0616 67H56.681C62.3256 67 66.9035 62.3133 66.9035 56.5283L66.9232 10.4745C66.9232 4.68952 62.351 1.97033e-06 56.7064 1.97033e-06ZM15.743 61.6329L13.2085 61.6611C10.1378 61.6611 7.64853 59.1371 7.64853 56.023L7.63442 55.5797V13.0493L7.65135 10.7568C7.76706 7.74434 10.056 5.32194 13.0505 5.32194H18.2069C22.8807 5.32194 26.6683 9.38751 26.6683 14.1787C26.6683 16.5502 25.7397 18.7016 24.2354 20.2657L11.0805 33.62L23.4113 46.1809C25.0002 47.8212 25.9598 49.9726 25.9598 52.3301C25.9598 57.4685 21.3877 61.6329 15.743 61.6329V61.6329ZM53.6498 61.5905L30.6619 61.5821C30.6619 61.5821 33.3177 55.8366 33.3177 52.2793C33.3177 47.9398 31.8698 44.0662 29.6007 41.5027L21.7376 33.4845L29.7615 25.1896C32.152 22.9451 33.7382 18.9585 33.7382 14.4158C33.7382 10.8189 32.7447 7.63424 31.1445 5.32194H36.7129C41.3867 5.32194 45.1771 9.38751 45.1771 14.1787C45.1771 16.5502 44.2486 18.7016 42.7443 20.2657L29.8406 33.4816L56.6415 60.8198C55.7919 61.3534 54.7223 61.5905 53.6498 61.5905V61.5905ZM59.2634 53.0557L40.0574 33.4732L49.2046 24.1732C51.0645 21.844 52.2471 18.3374 52.2471 14.4158C52.2471 10.7963 51.2395 7.52977 49.6251 5.21748L53.7175 5.34171C56.7882 5.34171 59.2775 7.86575 59.2775 10.9799L59.2634 53.0557V53.0557Z" fill="#00529C"/>
</svg>
